<svg width="24" height="24" viewBox="0 0 24 24" fill="none" xmlns="http://www.w3.org/2000/svg">
<g clip-path="url(#clip0_103_5)">
<path d="M20.4 0H3.6C1.61177 0 0 1.61177 0 3.6V20.4C0 22.3882 1.61177 24 3.6 24H20.4C22.3882 24 24 22.3882 24 20.4V3.6C24 1.61177 22.3882 0 20.4 0Z" fill="#FD531B"/>
<path d="M9.91447 5.20312L4.96875 9.60888H8.15805C8.38915 11.718 10.0531 12.6085 11.7633 12.7492C11.4398 13.5928 11.5785 14.0146 12.0869 14.5771C10.0994 14.6239 7.32606 15.7957 7.32606 17.7174C7.51094 19.8265 10.238 20.2483 11.5785 20.2483C13.3349 20.2952 15.3224 19.3578 15.7384 17.7174C15.9233 16.0769 15.2762 15.1864 14.3055 14.3896C13.2424 13.5459 13.0113 13.0772 13.3349 12.5148C14.0282 11.718 14.9526 11.2493 15.1375 10.1245C15.23 9.32766 15.0451 8.8121 14.8602 8.10905L16.9402 6.328L16.8939 7.07792C16.7553 7.17166 16.6628 7.35913 16.6628 7.49974V12.3273C16.7553 12.9366 17.6797 12.8429 17.7259 12.3273V7.49974C17.7259 7.35913 17.6335 7.17166 17.4948 7.12479V5.95304L18.2344 5.20312H9.91447ZM12.5953 11.8118C9.77581 12.2805 8.57404 7.73409 10.8389 7.17166C13.4273 6.65609 14.6753 11.2025 12.5953 11.8118ZM12.3642 15.2333C15.1375 15.8426 15.1837 18.1861 12.8264 18.8891C10.7927 19.3109 9.03626 18.7016 9.08248 17.483C9.08248 16.3113 10.7002 15.2333 12.3642 15.2333Z" fill="white"/>
</g>
<defs>
<clipPath id="clip0_103_5">
<rect width="24" height="24" fill="white"/>
</clipPath>
</defs>
</svg>
