<svg width="31" height="31" viewBox="0 0 31 31" fill="none" xmlns="http://www.w3.org/2000/svg">
<path fill-rule="evenodd" clip-rule="evenodd" d="M15.3475 0C6.90628 0 0 6.90628 0 15.347C0 23.7877 6.90628 30.695 15.3475 30.695C23.7887 30.695 30.695 23.7887 30.695 15.3475C30.695 6.90628 23.7887 0 15.3475 0ZM26.2443 7.05987C26.8586 7.82735 27.472 8.59432 27.7792 9.51539C26.8581 11.357 25.784 12.5848 24.4026 13.0456C23.1749 13.5059 22.1007 13.3523 21.026 13.1987C19.9519 13.0456 18.7241 12.8915 17.9566 13.8131C17.1891 14.7336 17.4963 15.9614 17.803 17.036C18.1102 17.9566 18.2633 19.0308 17.803 19.6447C17.0355 20.7193 14.8872 20.5657 14.8872 20.5657C13.3523 20.4121 12.1245 19.338 12.1245 19.0308C12.1245 18.8772 12.5848 18.7236 12.892 18.5705C13.6595 18.2633 14.7336 17.803 15.1939 16.5753C15.6547 15.3475 15.3475 13.8126 14.4264 12.7384C13.6595 11.9709 12.892 11.6642 12.2781 11.5106C11.6637 11.8178 11.5106 11.8178 11.357 11.5106C11.0498 10.8962 11.357 9.66899 11.9714 8.59482C13.1987 6.90628 15.6547 6.75268 19.6447 6.59959C21.7935 6.59959 24.0954 6.75268 26.2443 7.05987ZM1.53445 15.347C1.53445 12.5843 2.30192 10.1288 3.68328 7.97994C4.45076 8.28713 5.06464 8.74741 5.67852 9.36129C6.75268 10.436 7.67375 11.9704 7.36656 12.5843C7.21347 12.7379 7.05937 12.8915 6.75268 13.0451C6.2924 13.3518 5.67852 13.659 5.21823 14.4259C4.91104 15.0403 5.06464 15.6537 5.06464 15.9609V16.5748C4.91104 17.3422 3.83688 18.1097 1.84164 18.7236C1.68804 17.6489 1.53445 16.5748 1.53445 15.347ZM15.3475 29.1606C14.4264 29.1606 13.6595 29.007 12.7384 28.8534C13.3528 28.2395 13.9661 27.6256 14.58 27.1653C15.6547 26.2443 16.5753 25.6304 17.3427 25.784C17.4963 25.784 17.6499 25.9376 17.9566 26.0912C18.2638 26.3978 18.7241 26.7045 19.338 26.7045C20.1055 26.7045 20.5657 26.3973 21.026 26.0907C21.1796 25.9376 21.4863 25.7835 21.7935 25.6304C22.4074 25.4768 23.1749 25.6304 23.9423 26.0907C21.4863 28.0859 18.5705 29.1606 15.3475 29.1606ZM25.1701 25.1701C23.6351 24.249 22.4074 23.9423 21.3327 24.249C20.8724 24.4026 20.4121 24.7093 20.1055 24.8634C19.7983 25.1701 19.6447 25.1701 19.338 25.1701C19.1844 25.1701 19.1844 25.1701 18.8777 24.8629C18.5705 24.7093 18.2633 24.4026 17.6494 24.4026C16.2686 24.0954 15.0408 25.0165 13.6595 26.0907C12.7384 26.8581 11.8173 27.6256 11.0503 28.6998C7.05987 27.3184 3.83688 24.0954 2.30192 20.1055C5.06464 19.1844 6.44599 18.1102 6.59959 16.5753V14.7336C6.75268 14.4264 6.90678 14.2733 7.36656 14.1192C7.82735 13.9661 8.28763 13.6595 8.59432 12.892C9.51539 10.8967 6.90628 8.28763 6.59959 7.98044C6.1388 7.67325 5.37132 7.05987 4.60435 6.75268C7.05987 3.68378 11.0503 1.68804 15.3475 1.68804C19.0308 1.68804 22.4074 3.0694 24.8629 5.52542C23.0213 5.37132 21.3327 5.21823 19.4916 5.37132C15.5011 5.52492 12.4312 5.67852 10.7432 7.98044C9.82258 9.3618 9.2087 11.357 10.1293 12.5848C10.5896 13.3523 11.357 13.5059 11.9709 13.6595C12.5853 13.8126 13.0456 13.9667 13.3523 14.2733C13.9667 14.8872 14.1197 15.9614 13.8126 16.5753C13.5054 17.1896 13.0456 17.4963 12.2781 17.803C11.5106 18.1102 10.7432 18.4174 10.5896 19.4916C10.5896 19.9519 10.7432 20.4121 11.0503 20.8724C11.8173 21.7935 13.3523 22.561 14.7336 22.7146H15.1939C16.115 22.7146 17.9566 22.561 19.0313 21.026C19.9519 19.6447 19.4916 18.2633 19.1844 17.0355C18.8772 16.115 18.7241 15.5011 19.0308 15.1939C19.338 14.8867 19.7983 14.8867 20.7193 15.0403C21.7935 15.1939 23.3279 15.3475 24.8629 14.7331C26.2443 14.2733 27.472 13.1987 28.3931 11.6642C28.7003 12.892 29.007 14.2728 29.007 15.6542C29.1606 19.1844 27.6261 22.7146 25.1701 25.1701Z" fill="#1500FF"/>
</svg>
